<svg width="640" height="480" xmlns="http://www.w3.org/2000/svg" style="vector-effect: non-scaling-stroke;" stroke="null">
 <!-- Created with Method Draw - http://github.com/duopixel/Method-Draw/ -->

 <g stroke="null">
  <title stroke="null">background</title>
  <rect stroke="null" fill="#fff" id="canvas_background" height="482" width="642" y="-1" x="-1"/>
  <g style="vector-effect: non-scaling-stroke;" stroke="null" display="none" overflow="visible" y="0" x="0" height="100%" width="100%" id="canvasGrid">
   <rect fill="url(#gridpattern)" stroke-width="0" y="0" x="0" height="100%" width="100%"/>
  </g>
 </g>
 <g stroke="null">
  <title stroke="null">Layer 1</title>
  <path stroke="#000" d="m161.5,122.453125c1,1 0.715271,2.924843 -1,10c-3.604156,14.866409 -4,22 -4,25c0,3 0,7 3,14l0,1l0,2" id="svg_1" stroke-width="1.5" fill="none"/>
  <path stroke="#000" d="m161.5,141.453125c62,-28 63,-26 63,-25c0,4 0,10 0,16c0,1 0,6 0,8l0,3l0,3l0,1" id="svg_2" stroke-width="1.5" fill="none"/>
  <path stroke="#000" style="vector-effect: non-scaling-stroke;" d="m108.499997,128.848906c10.6,-2.28628 36.7233,1.061891 74.199999,9.145119c37.4767,8.083228 16.896338,21.72953 42.4,32.007916c7.073514,2.850698 7.204202,4.631586 10.6,9.145119c5.369388,7.136496 10.6,9.145119 10.6,11.431398c0,4.572559 18.764633,9.206274 21.2,11.431398c10.891299,9.951052 17.804202,11.490425 21.2,16.003958c5.369388,7.136496 18.764633,9.206274 21.2,11.431398c5.445731,4.975526 10.6,13.717678 10.6,22.862797l0,4.572559l0,2.28628l0,2.28628" id="svg_3" stroke-width="1.5" fill="none"/>
  <g stroke="null" transform="translate(36,1) " id="svg_23">
   <path stroke="null" id="svg_7" fill="#DAE2E5" d="m536.651348,206.86858a49.462141,22.23922 0 0 0 -49.462141,-22.23922l-494.621415,0a49.462141,22.23922 0 0 0 0,44.47844c-24.731071,11.11961 -49.462141,23.740367 -49.462141,66.71766c0,31.351741 16.61928,58.311235 76.023311,70.637323c-1.137629,2.323998 -1.830099,4.725834 -1.830099,7.199948c0,17.157558 28.885891,31.123789 65.933035,32.991883c27.624606,26.470232 87.288314,44.845387 156.646602,44.845387s129.021996,-18.375156 156.646602,-44.845387c37.047144,-1.868094 65.933035,-15.834325 65.933035,-32.991883c0,-2.474113 -0.704836,-4.875949 -1.830099,-7.199948c59.428763,-12.326088 76.023311,-39.285582 76.023311,-70.637323c0,-42.977293 -24.731071,-55.59805 -49.462141,-66.71766a49.462141,22.23922 0 0 0 49.462141,-22.23922z"/>
   <path stroke="null" id="svg_8" fill="#EDD87E" d="m-7.432208,229.1078l0,44.47844c0,24.574338 44.268617,44.47844 98.924283,44.47844s98.924283,-7.600253 98.924283,-7.600253c-2.324721,10.730424 22.121943,18.719864 49.462141,18.719864s52.936857,-8.684415 49.462141,-18.719864c0,0 44.268617,7.600253 98.924283,7.600253s98.924283,-19.904102 98.924283,-44.47844l0,-44.47844l-494.621415,0z"/>
   <path stroke="null" id="svg_9" opacity="0.1" d="m338.802782,273.58624m-49.462141,0a49.462141,22.23922 0 1 0 98.924283,0a49.462141,22.23922 0 1 0 -98.924283,0z"/>
   <path stroke="null" id="svg_10" opacity="0.1" d="m140.954216,273.58624m-49.462141,0a49.462141,22.23922 0 1 0 98.924283,0a49.462141,22.23922 0 1 0 -98.924283,0z"/>
   <path stroke="null" id="svg_11" fill="#EF4D4D" d="m165.685287,340.303901s0,33.35883 74.193212,33.35883s74.193212,-33.35883 74.193212,-33.35883l-148.386424,0z"/>
   <path stroke="null" id="svg_12" fill="#DAE2E5" d="m660.306702,240.22741m-74.193212,0a74.193212,33.35883 0 1 0 148.386424,0a74.193212,33.35883 0 1 0 -148.386424,0z"/>
   <path stroke="null" id="svg_13" opacity="0.1" d="m660.306702,262.46663c-28.230517,0 -53.542768,-5.376331 -71.584084,-13.910632c8.284909,14.366536 37.047144,25.030242 71.584084,25.030242s63.299176,-10.663706 71.584084,-25.030242c-18.041316,8.534301 -43.353567,13.910632 -71.584084,13.910632z"/>
   <path stroke="null" id="svg_14" fill="#434854" d="m338.802782,273.58624m-24.731071,0a24.731071,11.11961 0 1 0 49.462141,0a24.731071,11.11961 0 1 0 -49.462141,0z"/>
   <path stroke="null" id="svg_15" fill="#434854" d="m140.954216,273.58624m-24.731071,0a24.731071,11.11961 0 1 0 49.462141,0a24.731071,11.11961 0 1 0 -49.462141,0z"/>
   <path stroke="null" id="svg_16" opacity="0.1" d="m309.719043,351.423511c4.303206,-6.126905 4.352668,-11.11961 4.352668,-11.11961l-148.386424,0s0.049462,4.992705 4.352668,11.11961l139.681088,0z"/>
   <path stroke="null" id="svg_17" opacity="0.1" d="m190.416358,312.504876a49.462141,16.679415 0 1 0 98.924283,0a49.462141,16.679415 0 1 0 -98.924283,0z"/>
   <path stroke="null" id="svg_18" opacity="0.1" d="m-7.432208,229.1078l494.621415,0l0,11.11961l-494.621415,0l0,-11.11961z"/>
   <path stroke="null" id="svg_19" opacity="0.1" d="m388.264923,407.021561c-14.133807,0 -38.209504,-8.033918 -49.462141,-11.11961c8.111791,7.12211 24.731071,15.461818 46.77882,19.570514c4.031165,-2.835501 7.753191,-5.754398 10.943499,-8.817851l0.098924,-0.01112c-2.782245,0.138995 -5.490298,0.378067 -8.359102,0.378067zm-305.131951,-0.378067l0.098924,0.01112c3.190308,3.063453 6.912334,5.98235 10.943499,8.817851c22.04775,-4.103136 38.667029,-12.442844 46.77882,-19.570514c-11.252637,3.085692 -35.328335,11.11961 -49.462141,11.11961c-2.868804,0 -5.576856,-0.239072 -8.359102,-0.378067z"/>
   <path stroke="null" id="svg_20" fill="#EF4D4D" d="m609.496717,216.031139a73.67386,33.125318 0 0 1 50.809985,-9.162559c18.931635,0 36.008439,3.280285 49.128272,8.534301c-4.933849,-74.657062 -127.228993,-119.730401 -296.438979,-119.730401l-222.579637,0c-123.655354,0 -197.848566,33.35883 -197.848566,88.95688l494.621415,0c77.593734,0 115.704314,22.283699 122.30751,31.401779z"/>
   <path stroke="null" id="svg_21" opacity="0.1" fill="#FFFFFF" d="m135.018759,129.03131l299.381977,0c94.163552,0 177.272315,10.524711 243.106425,29.806115c-47.434194,-40.175151 -143.922466,-63.164945 -264.511167,-63.164945l-222.579637,0c-84.604993,0 -146.024607,15.628612 -176.381996,43.294202c34.920272,-6.438254 75.330841,-9.935372 120.984398,-9.935372z"/>
   <path stroke="null" id="svg_22" opacity="0.15" d="m609.496717,216.020019a73.513108,33.053041 0 0 1 22.900972,-6.666206c0.791394,-0.150115 1.694078,-0.216832 2.485473,-0.344708c3.548909,-0.58378 7.097817,-1.13976 10.894037,-1.478908a72.053975,32.396984 0 0 1 28.712773,-0.022239c3.215039,0.28355 6.23223,0.761693 9.274152,1.228717c1.187091,0.172354 2.43601,0.28355 3.598371,0.500382a72.672251,32.674974 0 0 1 11.54941,2.629788c3.771488,1.034124 7.246204,2.223922 10.535436,3.530476a322.567356,145.033074 0 0 0 -2.485473,-14.160823c-13.960689,-3.385921 -29.677285,-5.481968 -46.630434,-5.481968c-24.323008,0 -46.296564,4.092016 -63.521755,10.641467c6.553734,3.69727 10.894037,7.161029 12.687039,9.624022z"/>
  </g>
 </g>
</svg>